<svg xmlns="http://www.w3.org/2000/svg"  viewBox="0 0 50 50" width="50px" height="50px"><path d="M 25 3 C 16.734375 3 13.636719 11.773438 13.113281 13.46875 C 12.722656 13.882813 12 14.808594 12 16 L 12 16.609375 C 10.222656 17.519531 9 19.367188 9 21.5 C 9 22.933594 9.566406 24.28125 10.539063 25.296875 C 10.199219 25.78125 10 26.367188 10 27 C 10 27.726563 10.269531 28.382813 10.703125 28.902344 C 10.578125 29.03125 10.40625 29.21875 10.222656 29.46875 C 9.871094 29.9375 9.441406 30.652344 9.0625 31.644531 C 9.078125 31.609375 8.945313 31.855469 8.757813 32.125 C 8.566406 32.402344 8.3125 32.742188 8.0625 33.128906 C 7.558594 33.90625 7 34.847656 7 36 C 7 36.148438 7.035156 36.296875 7.097656 36.433594 C 7.097656 36.433594 7.609375 37.445313 8.835938 38.3125 C 9.394531 38.710938 10.121094 39.097656 11.019531 39.398438 C 11.191406 40.597656 11.78125 41.976563 13.265625 42.757813 C 13.625 43.441406 14.300781 44.574219 16 45.300781 L 16 46 C 16 46.550781 16.445313 47 17 47 L 36 47 C 36.3125 47 36.605469 46.855469 36.796875 46.609375 C 36.984375 46.359375 37.046875 46.039063 36.96875 45.738281 C 36.203125 42.90625 36.011719 37.363281 35.96875 35.816406 C 36.707031 35.613281 37.339844 35.257813 37.8125 34.824219 C 38.535156 34.164063 39 33.429688 39 32.53125 C 39 31.625 38.859375 30.765625 38.328125 30.066406 C 37.792969 29.367188 36.875 29 35.894531 29 C 35.101563 29 34.464844 29.226563 34 29.511719 L 34 27.941406 L 34.855469 26.519531 C 34.855469 26.519531 34.855469 26.515625 34.859375 26.515625 L 36 24.609375 L 36 27 C 36 27.449219 36.300781 27.84375 36.734375 27.960938 C 37.167969 28.082031 37.625 27.898438 37.859375 27.515625 L 39 25.609375 L 39 28 C 38.996094 28.359375 39.183594 28.695313 39.496094 28.878906 C 39.808594 29.058594 40.191406 29.058594 40.503906 28.878906 C 40.816406 28.695313 41.003906 28.359375 41 28 L 41 22 C 41 21.550781 40.699219 21.15625 40.265625 21.039063 C 39.832031 20.917969 39.375 21.101563 39.140625 21.484375 L 38 23.390625 L 38 21 C 38 20.730469 37.890625 20.472656 37.695313 20.28125 C 37.503906 20.09375 37.242188 19.992188 36.96875 20 C 36.628906 20.011719 36.316406 20.195313 36.140625 20.484375 L 33.75 24.472656 L 33.140625 25.484375 C 32.953125 25.796875 32.621094 25.96875 32.28125 25.96875 C 32.109375 25.96875 31.929688 25.921875 31.769531 25.828125 C 31.296875 25.542969 31.144531 24.929688 31.425781 24.453125 L 34.425781 19.453125 C 34.964844 18.558594 35.949219 18 37 18 C 37.273438 18 37.542969 18.035156 37.796875 18.109375 C 38.402344 18.273438 38.921875 18.621094 39.300781 19.082031 C 39.457031 19.046875 39.617188 19.039063 39.777344 19.027344 C 39.996094 17.546875 40 16.222656 40 15 C 40 5.574219 30.191406 3.027344 25 3 Z M 14.5 18 C 15.796875 18 16.972656 18.71875 17.578125 19.832031 C 17.210938 20.648438 17 21.550781 17 22.5 C 17 23.015625 17.066406 23.519531 17.183594 24 L 13 24 C 12.730469 24 12.476563 24.046875 12.230469 24.113281 C 11.46875 23.453125 11 22.519531 11 21.5 C 11 19.570313 12.570313 18 14.5 18 Z M 23.5 18 C 25.980469 18 28 20.019531 28 22.5 C 28 24.980469 25.980469 27 23.5 27 C 21.019531 27 19 24.980469 19 22.5 C 19 20.019531 21.019531 18 23.5 18 Z M 14 21 C 13.449219 21 13 21.449219 13 22 C 13 22.550781 13.449219 23 14 23 C 14.550781 23 15 22.550781 15 22 C 15 21.449219 14.550781 21 14 21 Z M 25 22 C 24.449219 22 24 22.449219 24 23 C 24 23.550781 24.449219 24 25 24 C 25.550781 24 26 23.550781 26 23 C 26 22.449219 25.550781 22 25 22 Z M 12.433594 29.941406 C 12.617188 29.980469 12.804688 30 13 30 L 14.6875 30 C 14.734375 30 19.550781 30.640625 22.484375 32.417969 C 26.40625 34.796875 26.027344 38.722656 26.011719 38.863281 L 26 39 C 26 39.203125 25.933594 44 20 44 C 16.152344 44 15.386719 42.507813 14.976563 41.707031 L 14.714844 41.21875 L 14.390625 41.078125 C 13.757813 40.808594 13.398438 40.355469 13.199219 39.886719 C 13.757813 39.957031 14.351563 40 15 40 C 17.839844 40 19.664063 39.746094 20.816406 39.472656 C 21.390625 39.335938 21.800781 39.195313 22.078125 39.078125 C 22.355469 38.960938 22.570313 38.820313 22.570313 38.820313 C 22.882813 38.625 23.058594 38.273438 23.035156 37.90625 C 23.007813 37.539063 22.785156 37.214844 22.449219 37.0625 C 22.113281 36.910156 21.722656 36.957031 21.429688 37.179688 C 21.429688 37.179688 21.464844 37.164063 21.296875 37.234375 C 21.132813 37.304688 20.835938 37.414063 20.355469 37.527344 C 19.398438 37.753906 17.722656 38 15 38 C 12.398438 38 10.878906 37.316406 9.992188 36.6875 C 9.265625 36.167969 9.171875 35.902344 9.097656 35.765625 C 9.164063 35.347656 9.363281 34.796875 9.738281 34.222656 C 9.953125 33.890625 10.1875 33.570313 10.394531 33.273438 C 10.601563 32.976563 10.789063 32.738281 10.9375 32.355469 C 11.246094 31.535156 11.585938 30.988281 11.828125 30.65625 C 12.074219 30.328125 12.171875 30.253906 12.171875 30.253906 C 12.28125 30.171875 12.367188 30.0625 12.433594 29.941406 Z M 35.894531 31 C 36.46875 31 36.605469 31.109375 36.734375 31.28125 C 36.863281 31.449219 37 31.855469 37 32.53125 C 37 32.488281 36.859375 32.988281 36.464844 33.347656 C 36.070313 33.710938 35.507813 34 34.75 34 C 34.738281 34 34.726563 34 34.714844 34 C 34.710938 34.003906 34.707031 34 34.703125 34 C 34.195313 34.023438 33.464844 33.324219 34.628906 31.683594 C 34.703125 31.601563 34.765625 31.507813 34.8125 31.40625 C 34.8125 31.40625 34.800781 31.390625 34.949219 31.273438 C 35.09375 31.15625 35.335938 31 35.894531 31 Z"/></svg>